<?xml version="1.0" standalone="no"?>
<!DOCTYPE svg PUBLIC "-//W3C//DTD SVG 20010904//EN"
 "http://www.w3.org/TR/2001/REC-SVG-20010904/DTD/svg10.dtd">
<svg version="1.0" xmlns="http://www.w3.org/2000/svg"
 width="48.000000pt" height="48.000000pt" viewBox="0 0 48.000000 48.000000"
 preserveAspectRatio="xMidYMid meet">

<g transform="translate(0.000000,48.000000) scale(0.100000,-0.100000)"
fill="#000000" stroke="none">
<path d="M300 375 c-29 -41 -57 -75 -61 -75 -4 0 -17 14 -29 30 -18 25 -28 30
-61 30 l-39 0 43 -60 42 -60 22 28 23 27 16 -23 c9 -13 20 -22 24 -20 5 2 40
47 79 101 l70 97 -38 0 c-36 0 -41 -4 -91 -75z"/>
<path d="M127 136 c-37 -52 -67 -97 -67 -100 0 -4 15 -6 33 -6 29 0 39 8 80
64 59 80 62 88 40 115 l-18 22 -68 -95z"/>
<path d="M256 205 c-16 -24 -16 -27 4 -55 18 -25 28 -30 61 -30 l40 0 -38 55
c-21 30 -41 54 -44 55 -4 0 -14 -11 -23 -25z"/>
</g>
</svg>
